<svg width="89" height="50" viewBox="0 0 89 50" fill="none" xmlns="http://www.w3.org/2000/svg">
<path d="M0 0H6.56426V17.6909L24.1771 0H32.6323L16.5863 15.7252L33.5238 39.1263H25.4467L11.8859 20.2405L6.5642 25.4201V39.1263H0V0Z" fill="#231C19"/>
<path d="M35.5557 0H41.7688V39.1263H35.5557V0Z" fill="#231C19"/>
<path d="M54.7683 40.5855L43.8008 10.4667H50.6051L57.7697 32.2173L65.5355 10.4667H71.7053L60.5559 41.1551L57.6195 49.2922H51.6559L54.7683 40.5855Z" fill="#231C19"/>
<path d="M89 16.1234H87.3522C82.3816 16.1234 79.8693 18.5935 79.8693 23.508V39.1263H73.7373V10.4655H79.5453V15.5126C81.2471 11.6878 83.9484 9.80177 87.6224 9.80177H87.7845C88.2167 9.82797 88.6219 9.85466 89 9.85466V16.1234Z" fill="#231C19"/>
</svg>
