<svg width="48" height="44" viewBox="0 0 48 44" fill="none" xmlns="http://www.w3.org/2000/svg">
<g clip-path="url(#clip0_302_238)">
<path d="M16.4029 2.74894C17.0707 2.74894 17.612 2.20188 17.612 1.52707C17.612 0.852267 17.0707 0.305176 16.4029 0.305176C15.7351 0.305176 15.1938 0.852235 15.1938 1.52707C15.1938 2.20191 15.7352 2.74894 16.4029 2.74894Z" fill="#2C4B82"/>
<path d="M27.6011 2.60735C28.1913 2.01088 28.1913 1.04381 27.6011 0.447336C27.0108 -0.149136 26.0539 -0.149137 25.4637 0.447336C24.8735 1.04381 24.8735 2.01088 25.4637 2.60735C26.0539 3.20382 27.0108 3.20382 27.6011 2.60735Z" fill="#2C4B82"/>
<path d="M21.8148 3.01364C22.6271 2.81983 23.1302 1.99721 22.9384 1.17625C22.7466 0.355297 21.9326 -0.153112 21.1203 0.0406911C20.3079 0.234494 19.8049 1.05712 19.9966 1.87807C20.1884 2.69903 21.0024 3.20744 21.8148 3.01364Z" fill="#2C4B82"/>
<path d="M31.5972 2.74894C32.265 2.74894 32.8063 2.20188 32.8063 1.52707C32.8063 0.852267 32.265 0.305176 31.5972 0.305176C30.9295 0.305176 30.3882 0.852235 30.3882 1.52707C30.3882 2.20191 30.9295 2.74894 31.5972 2.74894Z" fill="#2C4B82"/>
<path d="M41.7261 7.86756C42.3939 7.86756 42.9352 7.32051 42.9352 6.64569C42.9352 5.97088 42.3939 5.42383 41.7261 5.42383C41.0584 5.42383 40.5171 5.97088 40.5171 6.64569C40.5171 7.32051 41.0584 7.86756 41.7261 7.86756Z" fill="#2C4B82"/>
<path d="M41.7262 13.5968C42.7278 13.5968 43.5398 12.7762 43.5398 11.764C43.5398 10.7517 42.7278 9.93115 41.7262 9.93115C40.7246 9.93115 39.9126 10.7517 39.9126 11.764C39.9126 12.7762 40.7246 13.5968 41.7262 13.5968Z" fill="#2C4B82"/>
<path d="M36.9522 8.45456C37.9409 8.29242 38.6123 7.351 38.4519 6.35185C38.2914 5.35269 37.3599 4.67416 36.3712 4.8363C35.3825 4.99844 34.7111 5.93986 34.8716 6.93901C35.032 7.93817 35.9635 8.6167 36.9522 8.45456Z" fill="#2C4B82"/>
<path d="M6.2735 7.86756C6.94124 7.86756 7.48255 7.32051 7.48255 6.64569C7.48255 5.97088 6.94124 5.42383 6.2735 5.42383C5.60576 5.42383 5.06445 5.97088 5.06445 6.64569C5.06445 7.32051 5.60576 7.86756 6.2735 7.86756Z" fill="#2C4B82"/>
<path d="M6.27357 23.8322C7.27519 23.8322 8.08717 23.0116 8.08717 21.9993C8.08717 20.9871 7.27519 20.1665 6.27357 20.1665C5.27194 20.1665 4.45996 20.9871 4.45996 21.9993C4.45996 23.0116 5.27194 23.8322 6.27357 23.8322Z" fill="#2C4B82"/>
<path d="M1.20908 20.7773C0.541321 20.7773 0 21.3244 0 21.9992C0 22.674 0.541321 23.2211 1.20908 23.2211C1.87684 23.2211 2.41813 22.674 2.41813 21.9992C2.41813 21.3244 1.87681 20.7773 1.20908 20.7773Z" fill="#2C4B82"/>
<path d="M46.7911 20.7773C46.1233 20.7773 45.582 21.3244 45.582 21.9992C45.582 22.674 46.1233 23.2211 46.7911 23.2211C47.4588 23.2211 48.0001 22.674 48.0001 21.9992C48.0001 21.3244 47.4588 20.7773 46.7911 20.7773Z" fill="#2C4B82"/>
<path d="M6.27357 28.9503C7.27519 28.9503 8.08717 28.1297 8.08717 27.1175C8.08717 26.1053 7.27519 25.2847 6.27357 25.2847C5.27194 25.2847 4.45996 26.1053 4.45996 27.1175C4.45996 28.1297 5.27194 28.9503 6.27357 28.9503Z" fill="#2C4B82"/>
<path d="M1.20908 25.8955C0.541321 25.8955 0 26.4426 0 27.1174C0 27.7922 0.541321 28.3393 1.20908 28.3393C1.87684 28.3393 2.41813 27.7922 2.41813 27.1174C2.41813 26.4426 1.87681 25.8955 1.20908 25.8955Z" fill="#2C4B82"/>
<path d="M46.7911 25.8955C46.1233 25.8955 45.582 26.4426 45.582 27.1174C45.582 27.7922 46.1233 28.3393 46.7911 28.3393C47.4588 28.3393 48.0001 27.7922 48.0001 27.1174C48.0001 26.4426 47.4588 25.8955 46.7911 25.8955Z" fill="#2C4B82"/>
<path d="M31.5972 41.2505C30.9295 41.2505 30.3882 41.7975 30.3882 42.4724C30.3882 43.1472 30.9295 43.6942 31.5972 43.6942C32.265 43.6942 32.8063 43.1472 32.8063 42.4724C32.8063 41.7976 32.265 41.2505 31.5972 41.2505Z" fill="#2C4B82"/>
<path d="M21.8148 43.959C22.6272 43.7652 23.1302 42.9426 22.9385 42.1216C22.7467 41.3006 21.9327 40.7922 21.1203 40.986C20.308 41.1798 19.8049 42.0024 19.9966 42.8234C20.1884 43.6444 21.0024 44.1528 21.8148 43.959Z" fill="#2C4B82"/>
<path d="M27.601 43.5526C28.1912 42.9562 28.1912 41.9891 27.601 41.3927C27.0108 40.7962 26.0539 40.7962 25.4637 41.3927C24.8735 41.9891 24.8735 42.9562 25.4637 43.5526C26.0539 44.1491 27.0108 44.1491 27.601 43.5526Z" fill="#2C4B82"/>
<path d="M16.4029 41.2505C15.7352 41.2505 15.1938 41.7975 15.1938 42.4724C15.1938 43.1472 15.7352 43.6942 16.4029 43.6942C17.0706 43.6942 17.612 43.1472 17.612 42.4724C17.612 41.7976 17.0707 41.2505 16.4029 41.2505Z" fill="#2C4B82"/>
<path d="M6.2735 38.5761C6.94124 38.5761 7.48255 38.029 7.48255 37.3542C7.48255 36.6794 6.94124 36.1323 6.2735 36.1323C5.60576 36.1323 5.06445 36.6794 5.06445 37.3542C5.06445 38.029 5.60576 38.5761 6.2735 38.5761Z" fill="#2C4B82"/>
<path d="M6.27357 34.0685C7.27519 34.0685 8.08717 33.2479 8.08717 32.2357C8.08717 31.2234 7.27519 30.4028 6.27357 30.4028C5.27194 30.4028 4.45996 31.2234 4.45996 32.2357C4.45996 33.2479 5.27194 34.0685 6.27357 34.0685Z" fill="#2C4B82"/>
<path d="M11.3385 39.1871C12.3401 39.1871 13.1521 38.3666 13.1521 37.3543C13.1521 36.3421 12.3401 35.5215 11.3385 35.5215C10.3369 35.5215 9.5249 36.3421 9.5249 37.3543C9.5249 38.3666 10.3369 39.1871 11.3385 39.1871Z" fill="#2C4B82"/>
<path d="M41.7261 38.5761C42.3939 38.5761 42.9352 38.029 42.9352 37.3542C42.9352 36.6794 42.3939 36.1323 41.7261 36.1323C41.0584 36.1323 40.5171 36.6794 40.5171 37.3542C40.5171 38.029 41.0584 38.5761 41.7261 38.5761Z" fill="#2C4B82"/>
<path d="M11.3385 34.3742C12.5071 34.3742 13.4544 33.4169 13.4544 32.236C13.4544 31.055 12.5071 30.0977 11.3385 30.0977C10.17 30.0977 9.22266 31.055 9.22266 32.236C9.22266 33.4169 10.17 34.3742 11.3385 34.3742Z" fill="#2C4B82"/>
<path d="M6.27357 18.715C7.27519 18.715 8.08717 17.8944 8.08717 16.8821C8.08717 15.8699 7.27519 15.0493 6.27357 15.0493C5.27194 15.0493 4.45996 15.8699 4.45996 16.8821C4.45996 17.8944 5.27194 18.715 6.27357 18.715Z" fill="#2C4B82"/>
<path d="M1.20908 15.6602C0.541321 15.6602 0 16.2072 0 16.8821C0 17.5569 0.541321 18.1039 1.20908 18.1039C1.87684 18.1039 2.41813 17.5569 2.41813 16.8821C2.41813 16.2072 1.87681 15.6602 1.20908 15.6602Z" fill="#2C4B82"/>
<path d="M46.7911 18.1039C47.4588 18.1039 48.0001 17.5569 48.0001 16.8821C48.0001 16.2072 47.4588 15.6602 46.7911 15.6602C46.1233 15.6602 45.582 16.2072 45.582 16.8821C45.582 17.5569 46.1233 18.1039 46.7911 18.1039Z" fill="#2C4B82"/>
<path d="M39.652 17.3044C39.846 18.2831 40.7007 19.0205 41.7262 19.0205C42.8947 19.0205 43.8421 18.0632 43.8421 16.8822C43.8421 15.7013 42.8947 14.7439 41.7262 14.7439C40.7007 14.7439 39.846 15.4814 39.652 16.4601C39.494 15.3085 38.703 14.3639 37.6437 13.9957C38.4893 13.615 39.0797 12.7598 39.0797 11.7639C39.0797 10.4142 37.997 9.32013 36.6615 9.32013C35.4688 9.32013 34.4802 10.1936 34.2819 11.3417C34.1015 10.1622 33.1817 9.23265 32.0146 9.05039C33.1506 8.85008 34.015 7.85095 34.015 6.64555C34.015 5.2959 32.9324 4.20178 31.5969 4.20178C30.6114 4.20178 29.7652 4.7984 29.3885 5.65294C28.9804 4.45379 27.8573 3.59082 26.5322 3.59082C25.4711 3.59082 24.5392 4.14462 23.9999 4.98066C23.4606 4.14462 22.5287 3.59082 21.4676 3.59082C20.1425 3.59082 19.0194 4.45379 18.6113 5.65294C18.2346 4.7984 17.3884 4.20178 16.4029 4.20178C15.0674 4.20178 13.9848 5.29587 13.9848 6.64555C13.9848 7.64144 14.5752 8.49662 15.4207 8.87733C14.7788 9.10043 14.2349 9.53421 13.8706 10.099C13.4035 9.37493 12.6413 8.86577 11.756 8.74173C12.7244 8.54567 13.4541 7.68193 13.4541 6.64555C13.4541 5.46461 12.5068 4.50725 11.3382 4.50725C10.1697 4.50725 9.22238 5.46461 9.22238 6.64555C9.22238 7.68193 9.95208 8.54567 10.9205 8.74173C9.58626 8.92865 8.53277 9.99334 8.34778 11.3417C8.15377 10.363 7.29909 9.6256 6.27358 9.6256C5.10503 9.6256 4.15771 10.583 4.15771 11.7639C4.15771 12.9448 5.10503 13.9022 6.27358 13.9022C7.29909 13.9022 8.15377 13.1648 8.34778 12.1861C8.50574 13.3376 9.29677 14.2823 10.3561 14.6505C9.51047 15.0312 8.92012 15.8863 8.92012 16.8822C8.92012 18.2319 10.0027 19.326 11.3382 19.326C12.531 19.326 13.5196 18.4525 13.7179 17.3045C13.8675 18.2829 14.5254 19.0896 15.4124 19.4407C14.5254 19.7917 13.8675 20.5986 13.7179 21.577C13.5196 20.4289 12.531 19.5554 11.3382 19.5554C10.0028 19.5554 8.92012 20.6495 8.92012 21.9992C8.92012 23.3488 10.0027 24.4429 11.3382 24.4429C12.531 24.4429 13.5196 23.5694 13.7179 22.4214C13.8676 23.4005 14.5264 24.2077 15.4143 24.5583C14.5264 24.909 13.8676 25.7162 13.7179 26.6953C13.5196 25.5473 12.531 24.6737 11.3382 24.6737C10.0028 24.6737 8.92012 25.7679 8.92012 27.1175C8.92012 28.4671 10.0027 29.5613 11.3382 29.5613C12.531 29.5613 13.5196 28.6877 13.7179 27.5397C13.8676 28.5188 14.5264 29.326 15.4143 29.6767C14.4013 30.0767 13.6825 31.0704 13.6825 32.2358C13.6825 33.7542 14.9005 34.9851 16.4029 34.9851C17.4148 34.9851 18.2959 34.4255 18.7645 33.597C19.0057 34.0852 19.3706 34.4989 19.8201 34.795C19.1037 35.267 18.5998 36.0373 18.4771 36.932C18.2831 35.9533 17.4284 35.2159 16.4029 35.2159C15.2343 35.2159 14.287 36.1733 14.287 37.3542C14.287 38.5351 15.2343 39.4925 16.4029 39.4925C17.4284 39.4925 18.2831 38.7551 18.4771 37.7764C18.681 39.2631 19.9403 40.4089 21.4676 40.4089C22.5287 40.4089 23.4606 39.8551 23.9999 39.019C24.5392 39.8551 25.4711 40.4089 26.5322 40.4089C27.8573 40.4089 28.9804 39.5459 29.3885 38.3468C29.7652 39.2013 30.6114 39.798 31.5969 39.798C32.9324 39.798 34.015 38.7038 34.015 37.3542C34.015 36.3583 33.4247 35.5031 32.5791 35.1224C33.221 34.8993 33.7649 34.4655 34.1292 33.9007C34.5963 34.6248 35.3585 35.134 36.2438 35.258C35.2754 35.4541 34.5457 36.3178 34.5457 37.3542C34.5457 38.5351 35.493 39.4925 36.6616 39.4925C37.8301 39.4925 38.7774 38.5351 38.7774 37.3542C38.7774 36.3178 38.0477 35.4541 37.0793 35.258C38.4135 35.0711 39.467 34.0064 39.652 32.658C39.846 33.6367 40.7007 34.3741 41.7262 34.3741C42.8948 34.3741 43.8421 33.4168 43.8421 32.2358C43.8421 31.0549 42.8948 30.0975 41.7262 30.0975C40.7007 30.0975 39.846 30.835 39.652 31.8137C39.5293 30.919 39.0254 30.1487 38.309 29.6767C39.0255 29.2046 39.5293 28.4344 39.652 27.5397C39.846 28.5184 40.7007 29.2558 41.7262 29.2558C42.8948 29.2558 43.8421 28.2984 43.8421 27.1175C43.8421 25.9366 42.8948 24.9792 41.7262 24.9792C40.7007 24.9792 39.846 25.7166 39.652 26.6953C39.5293 25.8006 39.0254 25.0303 38.309 24.5583C39.0254 24.0863 39.5293 23.316 39.652 22.4213C39.846 23.4 40.7007 24.1374 41.7262 24.1374C42.8948 24.1374 43.8421 23.1801 43.8421 21.9991C43.8421 20.8182 42.8948 19.8609 41.7262 19.8609C40.7007 19.8609 39.846 20.5983 39.652 21.577C39.5294 20.6828 39.026 19.9128 38.3102 19.4407C39.026 18.9686 39.5294 18.1986 39.652 17.3044ZM34.2819 12.1861C34.422 12.9972 34.9562 13.6701 35.6794 13.9957C35.0374 14.2188 34.4936 14.6526 34.1292 15.2174C33.8362 14.7631 33.4268 14.3943 32.9438 14.1505C33.6482 13.7436 34.1531 13.0283 34.2819 12.1861ZM34.1292 30.571C33.899 30.2141 33.5974 29.9093 33.2443 29.6767C33.5974 29.444 33.899 29.1393 34.1292 28.7824C34.3594 29.1393 34.661 29.444 35.0141 29.6767C34.661 29.9093 34.3594 30.2141 34.1292 30.571ZM29.0645 30.571C28.8343 30.2141 28.5328 29.9093 28.1796 29.6767C28.5328 29.444 28.8343 29.1393 29.0645 28.7824C29.2948 29.1393 29.5963 29.444 29.9494 29.6767C29.5963 29.9093 29.2948 30.2141 29.0645 30.571ZM23.9999 35.6893C23.7697 35.3324 23.4681 35.0277 23.115 34.795C23.4681 34.5623 23.7697 34.2576 23.9999 33.9007C24.2301 34.2576 24.5317 34.5623 24.8848 34.795C24.5317 35.0277 24.2301 35.3324 23.9999 35.6893ZM18.7645 25.7563C18.4576 25.2138 17.9737 24.7883 17.3916 24.5583C17.9737 24.3284 18.4576 23.9029 18.7645 23.3603C19.0057 23.8485 19.3707 24.2622 19.8202 24.5583C19.3707 24.8545 19.0057 25.2682 18.7645 25.7563ZM18.9352 13.4287C19.1655 13.7857 19.467 14.0904 19.8202 14.3231C19.3707 14.6192 19.0057 15.0329 18.7645 15.5211C18.523 15.0942 18.1722 14.7397 17.7498 14.4956C18.2328 14.2519 18.6422 13.883 18.9352 13.4287ZM23.9999 8.31043C24.2301 8.66731 24.5317 8.97204 24.8848 9.20472C24.5317 9.4374 24.2301 9.74213 23.9999 10.099C23.7697 9.74213 23.4681 9.4374 23.115 9.20472C23.4681 8.97204 23.7697 8.66731 23.9999 8.31043ZM29.2353 13.125C29.4767 13.552 29.8276 13.9065 30.25 14.1505C29.7669 14.3942 29.3576 14.7631 29.0645 15.2174C28.8343 14.8605 28.5328 14.5557 28.1796 14.323C28.6291 14.0269 28.9941 13.6132 29.2353 13.125ZM29.0645 25.4526C28.8343 25.0958 28.5328 24.791 28.1796 24.5583C28.5328 24.3256 28.8343 24.0209 29.0645 23.664C29.2948 24.0209 29.5963 24.3256 29.9495 24.5583C29.5963 24.791 29.2948 25.0957 29.0645 25.4526ZM23.9999 30.571C23.7697 30.2141 23.4681 29.9093 23.115 29.6767C23.4681 29.444 23.7697 29.1393 23.9999 28.7824C24.2301 29.1393 24.5317 29.444 24.8848 29.6767C24.5317 29.9093 24.2301 30.2141 23.9999 30.571ZM23.9999 13.4287C24.2301 13.7856 24.5317 14.0904 24.8848 14.323C24.5317 14.5557 24.2301 14.8604 23.9999 15.2174C23.7697 14.8605 23.4681 14.5557 23.115 14.323C23.4681 14.0904 23.7697 13.7856 23.9999 13.4287ZM29.0645 18.5471C29.2945 18.9037 29.5956 19.2081 29.9483 19.4407C29.5956 19.6733 29.2946 19.9778 29.0645 20.3343C28.8345 19.9778 28.5335 19.6733 28.1808 19.4407C28.5334 19.2082 28.8345 18.9037 29.0645 18.5471ZM23.9999 20.3343C23.7699 19.9778 23.4688 19.6733 23.1161 19.4407C23.4688 19.2082 23.7699 18.9037 23.9999 18.5471C24.2299 18.9037 24.531 19.2081 24.8837 19.4407C24.531 19.6733 24.2299 19.9778 23.9999 20.3343ZM23.9999 23.664C24.2301 24.0209 24.5317 24.3256 24.8848 24.5583C24.5317 24.791 24.2301 25.0957 23.9999 25.4526C23.7697 25.0958 23.4681 24.791 23.115 24.5583C23.4681 24.3256 23.7697 24.0209 23.9999 23.664ZM18.7645 18.2434C19.0055 18.7311 19.37 19.1446 19.819 19.4407C19.37 19.7367 19.0055 20.1502 18.7645 20.638C18.4579 20.096 17.9747 19.6707 17.3934 19.4407C17.9747 19.2106 18.4579 18.7854 18.7645 18.2434ZM34.1292 25.4526C33.899 25.0957 33.5974 24.791 33.2442 24.5583C33.5974 24.3256 33.8989 24.0209 34.1292 23.664C34.3594 24.0209 34.661 24.3256 35.0141 24.5583C34.661 24.791 34.3594 25.0957 34.1292 25.4526ZM34.1292 20.3343C33.8992 19.9778 33.5981 19.6733 33.2454 19.4407C33.5981 19.2081 33.8992 18.9036 34.1292 18.5471C34.3592 18.9036 34.6603 19.2081 35.013 19.4407C34.6603 19.6732 34.3592 19.9778 34.1292 20.3343ZM29.3885 7.63815C29.7106 8.3689 30.3765 8.90887 31.1792 9.05042C30.3457 9.18056 29.638 9.69088 29.2353 10.4028C28.9941 9.91461 28.6291 9.50089 28.1796 9.20475C28.7385 8.83656 29.1677 8.28691 29.3885 7.63815ZM18.6113 7.63815C18.8321 8.28691 19.2613 8.83653 19.8201 9.20472C19.467 9.4374 19.1655 9.74213 18.9352 10.099C18.5709 9.53425 18.027 9.10046 17.3851 8.87733C17.9303 8.63187 18.3684 8.18917 18.6113 7.63815ZM13.7179 16.4601C13.5778 15.6489 13.0435 14.976 12.3204 14.6505C12.9624 14.4273 13.5062 13.9936 13.8705 13.4288C14.1636 13.883 14.573 14.2519 15.056 14.4956C14.3516 14.9026 13.8467 15.6178 13.7179 16.4601ZM18.7645 30.8747C18.4576 30.3321 17.9737 29.9065 17.3916 29.6766C17.9737 29.4467 18.4576 29.0212 18.7645 28.4786C19.0057 28.9668 19.3706 29.3805 19.8201 29.6767C19.3706 29.9728 19.0057 30.3865 18.7645 30.8747ZM29.3885 36.3616C29.1677 35.7128 28.7385 35.1632 28.1796 34.795C28.5328 34.5623 28.8343 34.2576 29.0645 33.9007C29.4289 34.4655 29.9728 34.8993 30.6147 35.1224C30.0695 35.3679 29.6314 35.8106 29.3885 36.3616Z" fill="#2C4B82"/>
</g>
<defs>
<clipPath id="clip0_302_238">
<rect width="48" height="44" fill="white"/>
</clipPath>
</defs>
</svg>
